<svg width="18" height="22" viewBox="0 0 18 22" fill="none" xmlns="http://www.w3.org/2000/svg">
<path d="M9.30313 4.67329V0.384033L3.94155 5.74561L9.30313 11.1072V6.81792C12.8525 6.81792 15.737 9.70245 15.737 13.2518C15.737 16.8012 12.8525 19.6857 9.30313 19.6857C5.75376 19.6857 2.86924 16.8012 2.86924 13.2518H0.724609C0.724609 17.9914 4.5635 21.8303 9.30313 21.8303C14.0428 21.8303 17.8816 17.9914 17.8816 13.2518C17.8816 8.51218 14.0428 4.67329 9.30313 4.67329Z" fill="#A1A1A9"/>
<path d="M7.008 17V13.122L6.203 13.311V12.625L7.386 12.1H7.939V17H7.008ZM10.6461 17.084C10.2868 17.084 9.97642 17.021 9.71509 16.895C9.45842 16.769 9.25542 16.5963 9.10609 16.377C8.96142 16.153 8.87742 15.901 8.85409 15.621H9.72909C9.77109 15.8217 9.87375 15.9897 10.0371 16.125C10.2004 16.2557 10.4034 16.321 10.6461 16.321C10.9074 16.321 11.1198 16.2253 11.2831 16.034C11.4511 15.8427 11.5351 15.6047 11.5351 15.32C11.5351 15.026 11.4511 14.7927 11.2831 14.62C11.1198 14.4473 10.9121 14.361 10.6601 14.361C10.4501 14.361 10.2681 14.4123 10.1141 14.515C9.96009 14.6177 9.85042 14.746 9.78509 14.9H8.92409L9.34409 12.1H12.0601V12.884H10.0161L9.79209 14.018C9.89475 13.906 10.0348 13.815 10.2121 13.745C10.3894 13.6703 10.5878 13.633 10.8071 13.633C11.1571 13.633 11.4488 13.7123 11.6821 13.871C11.9154 14.025 12.0928 14.2303 12.2141 14.487C12.3354 14.739 12.3961 15.0143 12.3961 15.313C12.3961 15.6537 12.3214 15.957 12.1721 16.223C12.0274 16.489 11.8221 16.699 11.5561 16.853C11.2948 17.007 10.9914 17.084 10.6461 17.084Z" fill="#A1A1A9"/>
</svg>
