<svg width="361" height="99" viewBox="0 0 361 99" fill="none" xmlns="http://www.w3.org/2000/svg">
<path d="M117.008 80.9956V37.5506H125.814V55.162H125.973L141.091 37.5506H152.125L135.097 56.6473L152.231 80.9956H141.728L129.58 62.8537L125.814 67.0974V80.9956H117.008ZM155.414 45.6667V36.9671H163.954V45.6667H155.414ZM155.52 80.9956V49.0617H163.901V80.9956H155.52ZM169.206 65.0286C169.206 59.7947 170.62 55.6748 173.449 52.6688C176.278 49.6275 179.886 48.1068 184.271 48.1068C187.666 48.1068 190.477 49.1501 192.705 51.2366C194.933 53.3231 196.312 55.6571 196.843 58.2387L189.682 60.2014C189.328 58.8929 188.709 57.7613 187.825 56.8064C186.941 55.8162 185.809 55.3211 184.43 55.3211C182.308 55.3211 180.699 56.2406 179.603 58.0796C178.506 59.9185 177.958 62.2349 177.958 65.0286C177.958 68.1761 178.559 70.5808 179.762 72.2429C181 73.9051 182.556 74.7361 184.43 74.7361C185.986 74.7361 187.294 74.2057 188.355 73.1447C189.416 72.0838 190.106 70.8637 190.424 69.4845L197.585 71.3942C196.984 74.1526 195.446 76.6104 192.97 78.7677C190.495 80.8895 187.595 81.9504 184.271 81.9504C179.815 81.9504 176.19 80.4121 173.396 77.3354C170.602 74.2587 169.206 70.1565 169.206 65.0286ZM202.041 80.9956V36.2244H210.423V59.777L220.236 49.0617H230.686L218.698 62.1641L231.111 80.9956H221.297L213.234 68.1053L210.423 71.182V80.9956H202.041ZM233.922 80.9956V36.2244H242.304V51.3427C244.39 49.1854 246.83 48.1068 249.624 48.1068C253.514 48.1068 256.75 49.6098 259.331 52.6158C261.948 55.5864 263.257 59.7063 263.257 64.9756C263.257 67.9462 262.833 70.5808 261.984 72.8795C261.17 75.1428 260.092 76.911 258.748 78.1841C257.404 79.4573 255.972 80.3944 254.451 80.9956C252.931 81.6322 251.375 81.9504 249.783 81.9504C248.121 81.9504 246.583 81.5438 245.168 80.7304C243.754 79.917 242.728 78.9622 242.091 77.8659V80.9956H233.922ZM242.251 64.9756C242.251 68.0169 242.781 70.404 243.842 72.1369C244.938 73.8697 246.459 74.7361 248.404 74.7361C250.207 74.7361 251.675 73.9227 252.807 72.296C253.938 70.6692 254.504 68.2291 254.504 64.9756C254.504 61.9696 253.974 59.6179 252.913 57.9204C251.852 56.1876 250.349 55.3211 248.404 55.3211C246.353 55.3211 244.814 56.2052 243.789 57.9735C242.763 59.7417 242.251 62.0757 242.251 64.9756ZM275.033 71.5533C275.033 72.5082 275.405 73.3216 276.147 73.9935C276.89 74.63 277.845 74.9483 279.012 74.9483C280.886 74.9483 282.477 74.3118 283.786 73.0386C285.094 71.7655 285.749 70.068 285.749 67.9462V65.8243C283.697 66.3194 282.071 66.6554 280.868 66.8322C276.978 67.398 275.033 68.9717 275.033 71.5533ZM266.44 72.296C266.44 69.3961 267.554 66.9913 269.782 65.0817C272.01 63.172 275.281 61.8989 279.595 61.2623C283.132 60.6965 285.183 60.3252 285.749 60.1484V58.5039C285.749 57.1954 285.289 56.2406 284.369 55.6394C283.485 55.0029 282.318 54.6846 280.868 54.6846C277.544 54.6846 274.68 55.9931 272.275 58.61L267.288 54.3133C270.754 50.1756 275.245 48.1068 280.762 48.1068C285.643 48.1068 289.108 49.2738 291.159 51.6079C293.21 53.9419 294.236 57.2485 294.236 61.5276V80.9956H286.014V77.7067C285.377 78.9091 284.316 79.917 282.831 80.7304C281.346 81.5438 279.648 81.9504 277.739 81.9504C274.273 81.9504 271.514 81.0663 269.463 79.2981C267.448 77.4945 266.44 75.1605 266.44 72.296ZM298.692 65.0286C298.692 59.7947 300.106 55.6748 302.936 52.6688C305.765 49.6275 309.372 48.1068 313.757 48.1068C317.152 48.1068 319.964 49.1501 322.191 51.2366C324.419 53.3231 325.799 55.6571 326.329 58.2387L319.168 60.2014C318.814 58.8929 318.195 57.7613 317.311 56.8064C316.427 55.8162 315.295 55.3211 313.916 55.3211C311.794 55.3211 310.185 56.2406 309.089 58.0796C307.993 59.9185 307.445 62.2349 307.445 65.0286C307.445 68.1761 308.046 70.5808 309.248 72.2429C310.486 73.9051 312.042 74.7361 313.916 74.7361C315.472 74.7361 316.781 74.2057 317.842 73.1447C318.903 72.0838 319.592 70.8637 319.91 69.4845L327.072 71.3942C326.471 74.1526 324.932 76.6104 322.457 78.7677C319.981 80.8895 317.081 81.9504 313.757 81.9504C309.301 81.9504 305.676 80.4121 302.883 77.3354C300.089 74.2587 298.692 70.1565 298.692 65.0286ZM331.528 80.9956V36.2244H339.909V59.777L349.723 49.0617H360.173L348.184 62.1641L360.597 80.9956H350.784L342.72 68.1053L339.909 71.182V80.9956H331.528Z" fill="white"/>
<path d="M45.5 4C56.5065 4 67.0622 8.37231 74.8449 16.1551C82.6277 23.9378 87 34.4935 87 45.5V87H45.5C34.4935 87 23.9378 82.6277 16.1551 74.8449C8.37231 67.0622 4 56.5065 4 45.5C4 34.4935 8.37231 23.9378 16.1551 16.1551C23.9378 8.37231 34.4935 4 45.5 4Z" fill="white" stroke="black" stroke-width="7.66154" stroke-miterlimit="10"/>
<path d="M61.4614 45.5C61.4614 49.7333 59.7798 53.7931 56.7864 56.7865C53.793 59.7799 49.7331 61.4615 45.4999 61.4615C41.2666 61.4615 37.2067 59.7799 34.2134 56.7865C31.22 53.7931 29.5383 49.7333 29.5383 45.5" fill="black"/>
</svg>
