<svg width="44" height="44" viewBox="0 0 44 44" fill="none" xmlns="http://www.w3.org/2000/svg">
<g clip-path="url(#clip0_900_3607)">
<path d="M0.656311 22.1094C0.656311 33.8886 10.2052 43.4375 21.9844 43.4375C33.7636 43.4375 43.3126 33.8886 43.3126 22.1094C43.3126 10.3302 33.7636 0.78125 21.9844 0.78125C10.2052 0.78125 0.656311 10.3302 0.656311 22.1094Z" fill="url(#paint0_linear_900_3607)"/>
<path d="M21.9181 10.9868C24.8504 10.9868 27.6625 12.1517 29.736 14.2251C31.8094 16.2985 32.9742 19.1107 32.9742 22.043V33.0991H21.9181C18.9858 33.0991 16.1736 31.9343 14.1002 29.8608C12.0268 27.7874 10.8619 24.9752 10.8619 22.043C10.8619 19.1107 12.0268 16.2985 14.1002 14.2251C16.1736 12.1517 18.9858 10.9868 21.9181 10.9868Z" fill="white" stroke="black" stroke-width="2.49939" stroke-miterlimit="10"/>
<path d="M26.1704 22.0432C26.1704 23.171 25.7224 24.2526 24.9249 25.0501C24.1275 25.8476 23.0459 26.2956 21.9181 26.2956C20.7903 26.2956 19.7087 25.8476 18.9112 25.0501C18.1137 24.2526 17.6657 23.171 17.6657 22.0432" fill="black"/>
</g>
<defs>
<linearGradient id="paint0_linear_900_3607" x1="21.9844" y1="0.78125" x2="21.9844" y2="43.4375" gradientUnits="userSpaceOnUse">
<stop stop-color="#9988FF"/>
<stop offset="1" stop-color="#594F96"/>
</linearGradient>
<clipPath id="clip0_900_3607">
<rect width="42.6562" height="42.6562" fill="white" transform="translate(0.656311 0.78125)"/>
</clipPath>
</defs>
</svg>
